PathFileType   4   (X/Y/Z)
DataRate	CameraRate	NumFrames	NumMarkers	Units	OrigDataRate	OrigDataStartFrame	OrigNumFrames
120.0	120.0	7	37	mm	120.0	64	126
Frame#	Time	midhip	hip_r	hip_l	knee_r	knee_l	ankle_r	ankle_l	midasis	asis_r	asis_l	psis_r	psis_l	epicondLat_r	epicondLat_l	epicondMed_r	epicondMed_l	malleolusLat_r	malleolusLat_l	malleolusMedv_r	malleolusMedv_l	neck	subclavicle_r	subclavicle_l	sternalnotch	xyphoidprocess	thighwand_r	thighwand_l	upperleg1_r	upperleg1_l	upperleg2_r	upperleg2_l	shankwand_r	shankwand_l	lowerleg1_r	lowerleg1_l	toe_r	toe_l
 	 	X1	Y1	Z1	X2	Y2	Z2	X3	Y3	Z3	X4	Y4	Z4	X5	Y5	Z5	X6	Y6	Z6	X7	Y7	Z7	X8	Y8	Z8	X9	Y9	Z9	X10	Y10	Z10	X11	Y11	Z11	X12	Y12	Z12	X13	Y13	Z13	X14	Y14	Z14	X15	Y15	Z15	X16	Y16	Z16	X17	Y17	Z17	X18	Y18	Z18	X19	Y19	Z19	X20	Y20	Z20	X21	Y21	Z21	X22	Y22	Z22	X23	Y23	Z23	X24	Y24	Z24	X25	Y25	Z25	X26	Y26	Z26	X27	Y27	Z27	X28	Y28	Z28	X29	Y29	Z29	X30	Y30	Z30	X31	Y31	Z31	X32	Y32	Z32	X33	Y33	Z33	X34	Y34	Z34	X35	Y35	Z35	X36	Y36	Z36	X37	Y37	Z37

	64	0.66667	492.777	717.965	-288.195	478.481	713.459	-223.534	470.021	706.467	-353.387	627.866	400.517	-238.290	354.142	407.921	-354.436	702.909	67.732	-235.272	143.493	110.927	-359.623	544.483	778.461	-296.724	551.032	783.874	-196.191	537.933	773.048	-397.258	388.441	820.335	-254.390	384.427	817.511	-309.194	633.801	400.771	-183.611	341.565	412.989	-407.222	618.306	397.964	-282.143	359.634	385.079	-305.576	700.531	67.535	-197.848	135.498	117.218	-395.197	706.557	68.581	-259.755	144.389	113.496	-329.037	408.827	1184.008	-302.701	510.630	1126.105	-246.271	520.264	1131.113	-322.386	501.062	1127.214	-287.650	530.784	1045.513	-286.834	681.991	548.050	-137.716	536.108	478.656	-398.145	584.971	568.712	-156.622	482.128	558.775	-412.997	617.580	492.173	-174.863	443.194	481.648	-406.713	674.270	173.822	-121.323	216.991	215.293	-469.517	676.541	139.288	-196.332	182.102	189.385	-397.542	802.552	42.934	-214.777	213.723	39.327	-368.166
	65	0.67500	503.047	718.277	-285.347	489.020	714.368	-221.435	481.211	706.595	-351.284	637.433	400.894	-237.585	366.852	407.207	-354.144	703.601	67.023	-235.548	149.229	115.315	-360.479	555.150	779.174	-294.683	561.191	785.187	-194.232	549.109	773.161	-395.134	398.122	820.750	-253.715	395.032	817.687	-308.632	644.962	401.652	-183.108	354.786	412.321	-407.045	631.332	399.405	-280.624	372.726	384.080	-304.196	702.384	67.011	-198.068	141.435	121.898	-396.045	707.853	67.736	-260.193	150.400	117.807	-330.003	418.178	1184.248	-301.822	521.188	1126.810	-244.759	531.417	1131.974	-320.879	511.960	1127.856	-286.261	542.488	1046.455	-285.249	694.940	550.565	-139.380	548.824	478.858	-395.852	598.155	570.966	-155.919	494.500	558.706	-411.032	631.538	494.407	-174.208	456.074	481.195	-404.918	681.412	173.730	-121.168	225.227	218.089	-470.216	681.102	138.874	-196.318	189.749	192.869	-398.217	803.913	40.690	-215.137	215.646	39.629	-368.072
	66	0.68333	513.281	718.730	-282.949	499.465	715.224	-219.379	492.194	706.902	-349.225	646.470	401.121	-236.967	380.350	406.350	-353.962	703.947	66.511	-235.830	155.896	119.828	-361.194	565.687	779.935	-292.627	571.307	786.367	-192.266	560.067	773.503	-392.988	407.875	821.169	-252.829	405.478	817.994	-307.801	655.428	402.275	-182.714	368.796	411.485	-406.976	645.124	401.099	-279.938	386.931	382.497	-302.776	703.834	66.619	-198.331	148.255	126.711	-396.736	708.908	67.098	-260.556	157.325	122.270	-330.831	427.600	1184.645	-300.968	531.754	1127.553	-243.205	542.706	1132.916	-319.298	522.937	1128.571	-284.839	554.201	1047.453	-283.621	707.336	552.384	-140.867	562.010	479.349	-393.593	610.396	572.515	-155.293	507.012	558.596	-408.965	645.100	496.382	-173.879	469.571	480.744	-403.074	687.967	173.514	-121.148	234.162	220.943	-470.894	684.892	138.666	-196.303	198.321	196.438	-398.752	804.976	39.133	-215.301	217.829	39.902	-367.919
	67	0.69167	523.661	719.396	-281.256	509.789	716.027	-217.383	502.918	707.360	-347.228	655.052	401.315	-236.465	394.582	405.331	-353.925	704.148	66.185	-236.102	163.585	124.386	-361.735	576.061	780.721	-290.602	581.365	787.412	-190.357	570.757	774.029	-390.847	417.851	821.587	-251.742	415.758	818.402	-306.673	665.115	402.682	-182.411	383.524	410.475	-407.043	650.372	400.299	-278.284	401.408	380.740	-302.057	704.899	66.336	-198.610	156.034	131.582	-397.235	709.621	66.683	-260.895	165.317	126.729	-331.496	437.080	1185.231	-300.110	539.823	1128.246	-242.045	553.532	1133.904	-317.714	532.526	1129.408	-283.989	563.830	1048.322	-281.930	718.878	553.399	-141.859	575.623	480.098	-391.471	621.674	573.431	-154.674	519.951	558.605	-407.010	654.533	496.758	-173.249	483.475	480.278	-401.556	693.517	173.237	-121.252	243.806	223.841	-471.517	688.082	138.740	-196.375	207.876	200.046	-399.183	805.754	38.136	-215.351	220.281	40.146	-367.680
	68	0.70000	533.574	719.925	-281.383	519.994	716.787	-215.447	513.372	707.913	-345.292	663.147	401.532	-236.073	409.479	404.131	-354.049	704.410	66.005	-236.365	172.339	128.920	-362.097	586.253	781.519	-288.645	591.357	788.359	-188.563	581.149	774.678	-388.727	428.112	822.030	-250.489	425.323	818.930	-305.148	673.956	402.913	-182.163	398.874	409.291	-407.257	657.282	400.410	-277.870	416.361	378.688	-302.168	705.652	66.125	-198.886	164.808	136.446	-397.532	710.014	66.364	-261.259	174.518	131.002	-331.978	446.473	1186.008	-299.315	548.211	1129.163	-240.872	560.067	1134.373	-316.669	539.881	1130.179	-282.525	570.680	1048.892	-280.855	729.456	553.661	-142.230	589.627	481.084	-389.581	632.068	573.859	-154.030	532.986	558.805	-405.454	663.847	496.940	-172.968	497.744	479.835	-400.574	697.781	172.947	-121.429	254.166	226.768	-472.052	690.882	138.865	-196.709	218.424	203.516	-399.446	806.304	37.549	-215.398	223.010	40.420	-367.364
	69	0.70833	543.582	721.128	-283.347	529.943	717.669	-213.576	523.422	708.644	-343.415	670.680	401.771	-235.760	424.960	402.766	-354.318	704.862	65.911	-236.621	182.142	133.386	-362.300	596.241	782.333	-286.797	601.258	789.276	-186.909	591.224	775.390	-386.685	438.480	822.591	-249.094	434.509	819.957	-304.100	681.911	402.994	-181.932	414.730	407.958	-407.597	662.229	399.509	-276.388	432.531	376.128	-302.536	706.168	65.948	-199.144	174.562	141.267	-397.647	710.436	66.012	-261.575	184.899	135.010	-332.288	455.825	1186.862	-298.578	559.057	1130.497	-239.529	569.574	1135.540	-315.163	550.008	1131.326	-280.860	581.369	1050.248	-279.471	739.077	553.315	-141.979	603.966	482.321	-388.022	641.542	574.095	-153.243	545.895	559.098	-404.287	671.734	496.432	-172.118	512.509	479.442	-399.929	700.670	172.661	-121.618	265.210	229.740	-472.475	693.191	138.846	-197.092	229.940	206.833	-399.480	806.682	37.216	-215.510	226.034	40.859	-367.038
	70	0.71667	553.147	722.876	-286.451	539.614	718.715	-211.775	533.074	709.522	-341.601	677.559	401.995	-235.471	440.949	401.279	-354.690	705.521	65.864	-236.865	192.940	137.781	-362.385	605.999	783.186	-285.088	611.022	790.247	-185.383	600.976	776.126	-384.793	448.626	823.377	-247.564	443.115	821.490	-303.193	688.965	402.938	-181.675	430.980	406.522	-408.013	668.102	399.754	-275.992	449.219	373.404	-303.331	706.504	65.790	-199.378	185.237	146.060	-397.615	710.912	65.606	-261.837	196.271	138.801	-332.439	465.143	1187.782	-297.848	568.103	1131.576	-238.399	579.394	1136.615	-313.702	559.483	1132.377	-279.718	590.969	1051.354	-277.982	747.820	552.552	-141.208	618.577	483.843	-386.878	650.327	574.243	-152.307	559.115	559.441	-403.258	679.318	496.268	-171.479	527.584	479.050	-399.557	702.301	172.371	-121.778	276.879	232.826	-472.775	694.896	138.664	-197.382	242.326	209.999	-399.301	806.925	37.029	-215.671	229.407	41.630	-366.751
